<?xml version="1.0" encoding="UTF-8" standalone="no"?>
<!DOCTYPE svg PUBLIC "-//W3C//DTD SVG 1.1//EN" "http://www.w3.org/Graphics/SVG/1.1/DTD/svg11.dtd">
<svg width="100%" height="100%" viewBox="0 0 1200 359" version="1.1" xmlns="http://www.w3.org/2000/svg" xmlns:xlink="http://www.w3.org/1999/xlink" xml:space="preserve" xmlns:serif="http://www.serif.com/" style="fill-rule:evenodd;clip-rule:evenodd;stroke-linejoin:round;stroke-miterlimit:2;">
    <g transform="matrix(4.16667,0,0,4.16667,0,0)">
        <g transform="matrix(1.18343,0,0,1.23077,0.299644,-12.2956)">
            <g transform="matrix(0.763132,0,0,0.73378,3.6,12.99)">
                <path d="M18.602,0.961L18.602,19.563L66.437,19.563L66.437,67.398L85.039,67.398L85.039,27.536L58.464,0.961L18.602,0.961Z" style="fill:rgb(192,62,20);fill-rule:nonzero;"/>
            </g>
            <g transform="matrix(0.763132,0,0,0.73378,3.6,12.99)">
                <path d="M66.437,86L66.437,67.398L18.602,67.398L18.602,19.563L0,19.563L0,59.426L26.574,86L66.437,86Z" style="fill:rgb(192,62,20);fill-rule:nonzero;"/>
            </g>
        </g>
        <g transform="matrix(1.04723,0,0,1.04723,-14.564,-2.37235)">
            <path d="M140.024,37.345L140.024,43.579L144.106,43.579C146.277,43.579 147.668,42.503 147.668,40.462C147.668,38.309 146.351,37.345 144.106,37.345L140.024,37.345ZM140.024,49.665L140.024,56.437L132.621,56.437L132.621,31.24L145.368,31.24C151.658,31.24 155.183,35.229 155.183,40.313C155.183,45.453 151.658,49.665 145.368,49.665L140.024,49.665Z" style="fill:rgb(236,236,236);fill-rule:nonzero;"/>
        </g>
        <g transform="matrix(1.04723,0,0,1.04723,-14.564,-2.37235)">
            <path d="M164.994,56.437L157.794,56.437L157.794,31.24L163.825,31.24L175.31,44.692L175.31,31.24L182.509,31.24L182.509,56.437L176.739,56.437L164.994,43.134L164.994,56.437Z" style="fill:rgb(236,236,236);fill-rule:nonzero;"/>
        </g>
        <g transform="matrix(1.04723,0,0,1.04723,-14.564,-2.37235)">
            <path d="M195.603,45.527C199.332,46.177 200.854,47.809 200.854,50.927C200.854,54.601 197.848,56.809 192.82,56.809C190.074,56.809 187.309,56.4 185.398,55.732L186.047,50.389C187.272,50.815 189.74,51.446 192.003,51.446C193.488,51.446 194.36,51.279 194.36,50.834C194.36,50.426 193.729,50.296 192.133,50.073L190.964,49.906C186.938,49.331 185.12,47.754 185.12,44.358C185.12,40.536 188.33,38.254 193.673,38.254C195.974,38.254 198.683,38.718 199.926,39.182L199.24,44.6C198.331,44.21 195.918,43.765 194.249,43.765C192.337,43.765 191.484,43.987 191.484,44.488C191.484,44.896 192.263,44.952 194.434,45.323L195.603,45.527Z" style="fill:rgb(236,236,236);fill-rule:nonzero;"/>
        </g>
        <g transform="matrix(1.04723,0,0,1.04723,-14.564,-2.37235)">
            <path d="M214.468,45.713C214.468,44.655 213.578,43.431 212.093,43.431C210.405,43.431 209.551,44.544 209.44,45.713L214.468,45.713ZM220.294,55.25C219.033,55.955 216.435,56.809 213.411,56.809C206.675,56.809 202.779,53.098 202.779,47.494C202.779,41.909 206.527,38.254 212.186,38.254C217.827,38.254 221.872,41.668 220.74,49.09L209.44,49.09C209.57,50.463 211.555,51.279 213.745,51.279C216.101,51.279 218.346,50.76 219.497,50.203L220.294,55.25Z" style="fill:rgb(236,236,236);fill-rule:nonzero;"/>
        </g>
        <g transform="matrix(1.04723,0,0,1.04723,-14.564,-2.37235)">
            <path d="M242.054,44.488L242.054,56.437L234.929,56.437L234.929,46.603C234.929,45.342 234.039,44.47 232.758,44.47C231.478,44.47 230.606,45.342 230.606,46.603L230.606,56.437L223.481,56.437L223.481,38.625L229.975,38.625L230.142,40.332C231.144,39.107 233.129,38.254 235.671,38.254C239.457,38.254 242.054,40.777 242.054,44.488Z" style="fill:rgb(236,236,236);fill-rule:nonzero;"/>
        </g>
        <g transform="matrix(1.04723,0,0,1.04723,-14.564,-2.37235)">
            <path d="M254.999,45.527C258.729,46.177 260.25,47.809 260.25,50.927C260.25,54.601 257.245,56.809 252.216,56.809C249.47,56.809 246.706,56.4 244.794,55.732L245.444,50.389C246.668,50.815 249.136,51.446 251.4,51.446C252.884,51.446 253.756,51.279 253.756,50.834C253.756,50.426 253.125,50.296 251.53,50.073L250.361,49.906C246.334,49.331 244.516,47.754 244.516,44.358C244.516,40.536 247.726,38.254 253.07,38.254C255.371,38.254 258.079,38.718 259.323,39.182L258.635,44.6C257.726,44.21 255.315,43.765 253.645,43.765C251.734,43.765 250.88,43.987 250.88,44.488C250.88,44.896 251.66,44.952 253.831,45.323L254.999,45.527Z" style="fill:rgb(236,236,236);fill-rule:nonzero;"/>
        </g>
        <g transform="matrix(1.04723,0,0,1.04723,-14.564,-2.37235)">
            <path d="M273.865,45.713C273.865,44.655 272.974,43.431 271.49,43.431C269.801,43.431 268.948,44.544 268.836,45.713L273.865,45.713ZM279.691,55.25C278.429,55.955 275.832,56.809 272.807,56.809C266.072,56.809 262.175,53.098 262.175,47.494C262.175,41.909 265.923,38.254 271.582,38.254C277.223,38.254 281.268,41.668 280.136,49.09L268.836,49.09C268.966,50.463 270.952,51.279 273.141,51.279C275.498,51.279 277.743,50.76 278.893,50.203L279.691,55.25Z" style="fill:rgb(236,236,236);fill-rule:nonzero;"/>
        </g>
        <g transform="matrix(1.04723,0,0,1.04723,-14.564,-2.37235)">
            <path d="M283.51,32.01L283.51,33.063L284.174,33.063C284.519,33.063 284.731,32.827 284.731,32.533C284.731,32.216 284.505,32.01 284.174,32.01L283.51,32.01ZM283.51,35.029L282.543,35.029L282.543,31.141L284.308,31.141C285.112,31.141 285.733,31.708 285.733,32.533C285.733,33.033 285.458,33.49 285.063,33.733L286.016,35.029L284.865,35.029L284.068,33.924L283.51,33.924L283.51,35.029ZM284.145,35.949C285.747,35.949 287.046,34.815 287.046,33.107C287.046,31.435 285.719,30.25 284.145,30.25C282.564,30.25 281.308,31.435 281.308,33.107C281.308,34.815 282.55,35.949 284.145,35.949ZM284.145,29.308C286.206,29.308 287.978,30.957 287.978,33.107C287.978,35.345 286.298,36.921 284.145,36.921C282.099,36.921 280.362,35.367 280.362,33.107C280.369,30.913 282.056,29.308 284.145,29.308Z" style="fill:rgb(236,236,236);fill-rule:nonzero;"/>
        </g>
        <g transform="matrix(1.04723,0,0,1.04723,-14.564,-2.37235)">
            <path d="M116.372,50.222C112.753,50.222 110.323,47.624 110.323,43.82C110.323,40.072 112.753,37.512 116.372,37.512C119.915,37.512 122.272,40.072 122.272,43.82C122.272,47.624 119.915,50.222 116.372,50.222ZM116.334,30.869C115.277,30.869 114.267,30.968 113.303,31.146L113.303,38.254L103.958,38.254C103.23,39.902 102.827,41.766 102.827,43.802C102.827,51.465 108.337,56.809 116.334,56.809C124.294,56.809 129.768,51.483 129.768,43.82C129.768,36.194 124.294,30.869 116.334,30.869Z" style="fill:rgb(236,236,236);fill-rule:nonzero;"/>
        </g>
    </g>
</svg>
