<?xml version="1.0" encoding="utf-8"?>
<!DOCTYPE svg PUBLIC "-//W3C//DTD SVG 20010904//EN" "http://www.w3.org/TR/2001/REC-SVG-20010904/DTD/svg10.dtd">
<svg version="1.0" width="71.25pt" height="73.5pt" viewBox="0 0 71.25 73.5" preserveAspectRatio="xMidYMid meet" xmlns="http://www.w3.org/2000/svg">
  <g transform="translate(0,73.5)scale(.075,.075)" fill="#DD630D">
    <path id="path1" d="M 220 -875 l 0 105 265 0 265 0 0 275 0 275 95 0 95 0 0 -228 0 -227 -153 -153 -152 -152 -208 0 -207 0 0 105 z M 0 -537 l 0 222 153 153 152 152 213 0 212 0 0 -100 0 -100 -265 0 -265 0 0 -275 0 -275 -100 0 -100 0 0 223 z " />
  </g>
</svg>